<?xml version="1.0"?>
<svg width="1460" height="162" xmlns="http://www.w3.org/2000/svg" xmlns:svg="http://www.w3.org/2000/svg">
 <g class="layer">
  <title>Layer 1</title>
  <path d="m69.18,1l-58.65,0c-5.39,0 -8.69,3.31 -8.69,8.7l0,144.51c0,5.39 3.3,8.7 8.69,8.7l20.4,0c5.38,0 8.69,-3.31 8.69,-8.7l0,-44.52l29.56,0c13.41,0 24.09,-3.78 31.64,-11.24c7.56,-7.47 11.43,-18.15 11.43,-31.57l0,-23.06c0,-13.43 -3.87,-24.01 -11.43,-31.57c-7.55,-7.37 -18.23,-11.25 -31.64,-11.25zm5.29,44.33l0,20.22c0,3.97 -0.75,6.81 -2.17,8.23c-1.32,1.41 -4.16,2.17 -8.22,2.17l-24.56,0l0,-41.11l24.56,0c4.06,0 6.9,0.75 8.22,2.17c1.42,1.23 2.17,4.16 2.17,8.32z" fill="#000000" id="svg_6" transform="matrix(1 0 0 1 0 0)"/>
  <path d="m208.66,99.81c13.6,-6.9 20.5,-19.66 20.5,-38l0,-18.71c0,-13.42 -3.97,-24.1 -11.62,-31.66c-7.75,-7.56 -18.42,-11.35 -31.83,-11.35l-57.24,0c-5.38,0 -8.69,3.31 -8.69,8.7l0,144.52c0,5.38 3.31,8.69 8.69,8.69l20.4,0c5.39,0 8.69,-3.31 8.69,-8.69l0,-48.4l13.04,0l22.95,49.62c1.13,2.93 2.83,5.01 4.91,6.05c1.79,0.95 4.34,1.33 7.84,1.33l19.46,0c3.3,0 5.76,-1.04 7.08,-3.03c1.42,-1.98 1.51,-4.54 0.19,-7.94l-24.37,-51.13zm-17.19,-55.48l0,18.71c0,3.69 -0.85,6.33 -2.36,7.75c-1.7,1.51 -4.82,2.37 -8.88,2.37l-22.57,0l0,-39.42l22.57,0c4.16,0 7.18,0.76 8.88,2.37c1.51,1.51 2.36,4.25 2.36,8.22z" fill="#000000" id="svg_8" transform="matrix(1 0 0 1 0 0)"/>
  <path d="m423.27,1l-20.4,0c-5.38,0 -8.69,3.31 -8.69,8.7l0,144.51c0,5.39 3.31,8.7 8.69,8.7l20.4,0c5.39,0 8.69,-3.31 8.69,-8.7l0,-144.51c-0.09,-5.39 -3.4,-8.7 -8.69,-8.7z" fill="#0000bf" id="svg_9" transform="matrix(1 0 0 1 0 0)"/>
  <path d="m1184.52,150.94l-24.46,-51.13c13.6,-6.9 20.5,-19.66 20.5,-38l0,-18.71c0,-13.42 -3.97,-24.1 -11.62,-31.66c-7.75,-7.56 -18.42,-11.35 -31.83,-11.35l-57.24,0c-5.38,0 -8.69,3.31 -8.69,8.7l0,144.52c0,5.38 3.31,8.69 8.69,8.69l20.4,0c5.39,0 8.69,-3.31 8.69,-8.69l0,-48.4l13.04,0l22.95,49.62c1.13,2.93 2.83,5.01 4.91,6.05c1.79,0.95 4.34,1.33 7.84,1.33l19.46,0c3.3,0 5.76,-1.04 7.08,-3.03c1.42,-1.98 1.6,-4.54 0.28,-7.94zm-41.65,-106.61l0,18.71c0,3.69 -0.85,6.33 -2.36,7.75c-1.7,1.51 -4.82,2.37 -8.88,2.37l-22.57,0l0,-39.42l22.57,0c4.16,0 7.18,0.76 8.88,2.37c1.51,1.51 2.36,4.25 2.36,8.22z" fill="#0000bf" id="svg_11" transform="matrix(1 0 0 1 0 0)"/>
  <polygon cx="99.62" cy="261.04" fill="#484848" id="svg_14" orient="point" point="5" points="99.61620653625418,259.5454654142637 99.90827937549614,260.6341736196634 101.03395787950666,260.57552205927334 100.08879031733834,261.1897291736512 100.49242505398003,262.24218872123663 99.61620653625418,261.5330813886544 98.73998801852834,262.24218872123663 99.14362275517003,261.1897291736512 98.1984551930017,260.57552205927334 99.32413369701223,260.6341736196634 99.61620653625418,259.5454654142637 99.90827937549614,260.6341736196634 " r="1.49" r2="0.5" radialshift="0" shape="star" starRadiusMultiplier="3" stroke-width="NaN"/>
  <path d="m92.16,256.76l0.19,-1l0.63,0l0.19,1z" fill="#484848" id="svg_15"/>
  <path d="m85.68,249.29l0.19,-1l0.62,0l0.19,1z" fill="#484848" id="svg_16"/>
  <path d="m307.83,0.28l-26.92,0c-13.6,0 -24.28,3.78 -31.83,11.15c-7.56,7.37 -11.43,18.06 -11.43,31.67l0,76.27c0,13.61 3.87,24.29 11.43,31.66c7.55,7.37 18.23,11.16 31.83,11.16l26.92,0c13.6,0 24.27,-3.79 31.83,-11.16c7.55,-7.37 11.43,-18.05 11.43,-31.66l0,-76.27c0,-13.61 -3.88,-24.3 -11.43,-31.67c-7.56,-7.37 -18.23,-11.15 -31.83,-11.15zm5.57,44.33l0,73.34c0,4.07 -0.76,7 -2.17,8.41c-1.42,1.42 -4.35,2.18 -8.41,2.18l-17.09,0c-4.07,0 -6.9,-0.76 -8.22,-2.18c-1.42,-1.41 -2.08,-4.34 -2.08,-8.41l0,-73.34c0,-4.07 0.76,-7 2.08,-8.41c1.32,-1.42 4.15,-2.18 8.22,-2.18l17.09,0c4.06,0 6.99,0.76 8.41,2.18c1.41,1.41 2.17,4.34 2.17,8.41z" fill="#000000" id="svg_18" transform="matrix(1 0 0 1 0 0)"/>
  <rect fill="#ffffff" height="42" id="svg_19" width="61" x="311.94" y="60.04"/>
  <path d="m1014.6,0l-26.92,0c-13.6,0 -24.28,3.78 -31.83,11.15c-7.56,7.37 -11.43,18.06 -11.43,31.67l0,76.27c0,13.61 3.87,24.29 11.43,31.66c7.55,7.37 18.23,11.16 31.83,11.16l26.92,0c13.6,0 24.27,-3.79 31.83,-11.16c7.55,-7.37 11.43,-18.05 11.43,-31.66l0,-76.27c0,-13.61 -3.88,-24.3 -11.43,-31.67c-7.56,-7.37 -18.23,-11.15 -31.83,-11.15zm5.57,44.33l0,73.34c0,4.07 -0.76,7 -2.17,8.41c-1.42,1.42 -4.35,2.18 -8.41,2.18l-17.09,0c-4.07,0 -6.9,-0.76 -8.22,-2.18c-1.42,-1.41 -2.08,-4.34 -2.08,-8.41l0,-73.34c0,-4.07 0.76,-7 2.08,-8.41c1.32,-1.42 4.15,-2.18 8.22,-2.18l17.09,0c4.06,0 6.99,0.76 8.41,2.18c1.41,1.41 2.17,4.34 2.17,8.41z" fill="#0000bf" id="svg_20" transform="matrix(1 0 0 1 0 0)"/>
  <path d="m609.6,1l-26.92,0c-13.6,0 -24.28,3.78 -31.83,11.15c-7.56,7.37 -11.43,18.06 -11.43,31.67l0,76.27c0,13.61 3.87,24.29 11.43,31.66c7.55,7.37 18.23,11.16 31.83,11.16l26.92,0c13.6,0 24.27,-3.79 31.83,-11.16c7.55,-7.37 11.43,-18.05 11.43,-31.66l0,-76.27c0,-13.61 -3.88,-24.3 -11.43,-31.67c-7.56,-7.37 -18.23,-11.15 -31.83,-11.15zm5.57,44.33l0,73.34c0,4.07 -0.76,7 -2.17,8.41c-1.42,1.42 -4.35,2.18 -8.41,2.18l-17.09,0c-4.07,0 -6.9,-0.76 -8.22,-2.18c-1.42,-1.41 -2.08,-4.34 -2.08,-8.41l0,-73.34c0,-4.07 0.76,-7 2.08,-8.41c1.32,-1.42 4.15,-2.18 8.22,-2.18l17.09,0c4.06,0 6.99,0.76 8.41,2.18c1.41,1.41 2.17,4.34 2.17,8.41z" fill="#0000bf" id="svg_21" transform="matrix(1 0 0 1 0 0)"/>
  <path d="m522.43,1.28l-20.4,0c-5.38,0 -8.69,3.31 -8.69,8.7l0,144.51c0,5.39 3.31,8.7 8.69,8.7l20.4,0c5.39,0 8.69,-3.31 8.69,-8.7l0,-144.51c-0.09,-5.39 -3.4,-8.7 -8.69,-8.7z" fill="#0000bf" id="svg_22" transform="matrix(1 0 0 1 0 0)"/>
  <path d="m423.39,5.96l-14.73,14.12c-3.88,3.72 -5.12,7.21 -3.25,9.17l50.18,52.36c1.87,1.95 5.41,0.86 9.3,-2.86l14.73,-14.12c3.89,-3.73 5.12,-7.21 3.25,-9.17l-50.18,-52.36c-1.94,-1.89 -5.48,-0.8 -9.3,2.86z" fill="#0000bf" id="svg_23" transform="matrix(1 0 0 1 0 0)"/>
  <path d="m515.42,25.93l-13.52,-15.28c-3.57,-4.03 -7,-5.41 -9.03,-3.61l-54.31,48.07c-2.03,1.79 -1.08,5.37 2.49,9.4l13.52,15.28c3.57,4.04 7,5.41 9.03,3.61l54.31,-48.07c1.97,-1.86 1.02,-5.44 -2.49,-9.4z" fill="#0000bf" id="svg_24" transform="matrix(1 0 0 1 0 0)"/>
  <path d="m689.43,0.28l-20.4,0c-5.38,0 -8.69,3.31 -8.69,8.7l0,144.51c0,5.39 3.31,8.7 8.69,8.7l20.4,0c5.39,0 8.69,-3.31 8.69,-8.7l0,-144.51c-0.09,-5.39 -3.4,-8.7 -8.69,-8.7z" fill="#0000bf" id="svg_25" transform="matrix(1 0 0 1 0 0) matrix(1 0 0 1 0 0)"/>
  <path d="m754.43,0.28l-20.4,0c-5.38,0 -8.69,3.31 -8.69,8.7l0,144.51c0,5.39 3.31,8.7 8.69,8.7l20.4,0c5.39,0 8.69,-3.31 8.69,-8.7l0,-144.51c-0.09,-5.39 -3.4,-8.7 -8.69,-8.7z" fill="#0000bf" id="svg_26" transform="matrix(1 0 0 1 0 0)"/>
  <path d="m691.47,3.86l-18.95,8.43c-5,2.22 -6.83,6.6 -4.79,11.49l54.47,131.21c2.03,4.89 6.35,6.53 11.35,4.31l18.95,-8.43c5.01,-2.23 6.83,-6.6 4.79,-11.49l-54.47,-131.21c-2.12,-4.86 -6.44,-6.49 -11.35,-4.31z" fill="#0000bf" id="svg_27" transform="matrix(1 0 0 1 0 0) matrix(1 0 0 1 0 0)"/>
  <path d="m810.43,0.28l-20.4,0c-5.38,0 -8.69,3.31 -8.69,8.7l0,144.51c0,5.39 3.31,8.7 8.69,8.7l20.4,0c5.39,0 8.69,-3.31 8.69,-8.7l0,-144.51c-0.09,-5.39 -3.4,-8.7 -8.69,-8.7z" fill="#0000bf" id="svg_28" transform="matrix(1 0 0 1 0 0)"/>
  <path d="m890.43,1.28l-20.4,0c-5.38,0 -8.69,3.31 -8.69,8.7l0,144.51c0,5.39 3.31,8.7 8.69,8.7l20.4,0c5.39,0 8.69,-3.31 8.69,-8.7l0,-144.51c-0.09,-5.39 -3.4,-8.7 -8.69,-8.7z" fill="#0000bf" id="svg_29" transform="matrix(1 0 0 1 0 0)"/>
  <path d="m829.33,9.59l-0.11,20.4c-0.03,5.38 2.16,8.7 5.75,8.72l96.35,0.54c3.59,0.02 5.82,-3.28 5.85,-8.66l0.11,-20.4c0.03,-5.39 -2.16,-8.7 -5.75,-8.72l-96.35,-0.54c-3.59,0.07 -5.82,3.37 -5.85,8.66z" fill="#0000bf" id="svg_30"/>
  <path d="m1270.53,52.86l-20.4,-0.32c-5.38,-0.08 -8.71,2.11 -8.74,5.78l-0.78,98.19c-0.03,3.66 3.26,5.96 8.64,6.05l20.4,0.32c5.39,0.08 8.71,-2.11 8.74,-5.78l0.78,-98.19c-0.06,-3.66 -3.35,-5.96 -8.64,-6.05z" fill="#0000bf" id="svg_31" transform="matrix(1 0 0 1 0 0)"/>
  <path d="m1203.44,3.05l-15.05,13.77c-3.97,3.63 -4.88,7.51 -2.39,10.2l66.83,71.94c2.49,2.68 6.47,2.1 10.43,-1.54l15.05,-13.77c3.98,-3.64 4.88,-7.51 2.39,-10.2l-66.83,-71.94c-2.56,-2.62 -6.53,-2.04 -10.43,1.54z" fill="#0000bf" id="svg_34" transform="matrix(1 0 0 1 0 0)"/>
  <path d="m1327.78,14.86l-15.79,-12.92c-4.16,-3.41 -8.14,-3.75 -10.44,-0.9l-61.62,76.46c-2.3,2.85 -1.15,6.7 3.02,10.11l15.79,12.92c4.17,3.41 8.14,3.75 10.44,0.9l61.62,-76.46c2.23,-2.91 1.08,-6.76 -3.02,-10.11z" fill="#0000bf" id="svg_35" transform="matrix(1 0 0 1 0 0)"/>
  <path d="m348.11,74.12l-0.04,11.88c-0.01,3.13 0.82,5.07 2.19,5.08l36.62,0.31c1.37,0.01 2.21,-1.91 2.22,-5.04l0.04,-11.88c0.01,-3.14 -0.82,-5.07 -2.19,-5.08l-36.62,-0.31c-1.37,0.04 -2.21,1.96 -2.22,5.04z" fill="#000000" id="svg_36"/>
 </g>
</svg>