<?xml version="1.0" standalone="no"?>
<!DOCTYPE svg PUBLIC "-//W3C//DTD SVG 20010904//EN"
 "http://www.w3.org/TR/2001/REC-SVG-20010904/DTD/svg10.dtd">
<svg version="1.0" xmlns="http://www.w3.org/2000/svg"
 width="216.000000pt" height="74.000000pt" viewBox="0 0 216.000000 74.000000"
 preserveAspectRatio="xMidYMid meet">

<g transform="translate(0.000000,74.000000) scale(0.100000,-0.100000)"
fill="#000000" stroke="none">
<path d="M1489 687 c-62 -41 -69 -69 -69 -275 0 -163 2 -187 20 -222 26 -51
81 -81 147 -79 l48 2 -55 6 c-64 7 -103 29 -130 74 -18 29 -20 51 -20 218 l0
187 35 31 c27 24 45 31 76 31 52 0 102 -24 135 -63 l26 -31 -33 -29 c-59 -50
-131 -121 -139 -137 -5 -8 30 22 76 68 47 45 89 82 94 82 18 0 44 -114 44
-192 l1 -78 49 0 c59 0 130 31 153 67 10 14 20 47 23 74 8 60 7 62 -187 193
-140 94 -144 96 -201 96 -45 0 -67 -6 -93 -23z"/>
<path d="M340 540 c0 -25 4 -30 25 -30 25 0 25 -1 25 -85 l0 -85 30 0 c26 0
30 4 31 28 0 27 1 27 11 4 6 -13 27 -27 48 -33 56 -17 91 3 107 61 l12 45 -2
-53 c-2 -51 -1 -52 26 -52 26 0 27 2 27 48 0 44 12 72 32 72 4 0 8 -27 8 -60
l0 -60 30 0 c29 0 30 1 30 49 0 28 6 53 13 60 21 16 27 3 27 -56 0 -52 0 -53
30 -53 28 0 30 -2 30 -40 0 -38 2 -40 30 -40 28 0 30 3 30 38 0 37 0 37 41 38
32 0 47 6 64 26 l23 27 23 -25 c30 -32 78 -40 117 -20 34 18 42 33 42 86 0 79
-103 111 -161 49 -19 -21 -29 -26 -29 -16 0 25 -41 47 -85 47 -42 -1 -64 -12
-83 -45 -9 -16 -11 -16 -12 -4 0 36 -32 48 -125 48 -93 0 -125 -12 -125 -48
-1 -12 -3 -11 -12 4 -28 52 -101 63 -143 20 l-25 -24 0 24 c0 20 5 25 25 25
21 0 25 5 25 30 l0 30 -80 0 -80 0 0 -30z m207 -86 c-3 -3 -12 -4 -19 -1 -8 3
-5 6 6 6 11 1 17 -2 13 -5z m463 -28 c0 -23 -30 -41 -48 -30 -23 15 -25 29 -7
48 12 12 21 13 36 6 10 -6 19 -17 19 -24z m168 25 c8 -4 12 -19 10 -32 -2 -18
-9 -24 -28 -24 -28 0 -39 27 -20 50 14 17 20 18 38 6z m-625 -58 c-7 -2 -19
-2 -25 0 -7 3 -2 5 12 5 14 0 19 -2 13 -5z"/>
<path d="M1993 380 c0 -25 2 -35 4 -22 2 12 2 32 0 45 -2 12 -4 2 -4 -23z"/>
<path d="M1560 345 c25 -13 50 -24 55 -24 6 0 -10 11 -35 24 -25 13 -49 24
-55 24 -5 0 10 -11 35 -24z"/>
<path d="M1970 305 c-7 -14 -27 -34 -44 -45 -17 -11 -26 -20 -19 -20 14 0 83
66 83 80 0 16 -6 12 -20 -15z"/>
<path d="M1698 293 c7 -3 16 -2 19 1 4 3 -2 6 -13 5 -11 0 -14 -3 -6 -6z"/>
<path d="M1810 205 c-14 -8 -20 -14 -15 -14 6 0 21 6 35 14 14 8 21 14 15 14
-5 0 -21 -6 -35 -14z"/>
<path d="M1710 160 c-19 -11 -30 -19 -25 -19 6 0 26 8 45 19 19 11 31 19 25
19 -5 0 -26 -8 -45 -19z"/>
</g>
</svg>
